<svg xmlns="http://www.w3.org/2000/svg" viewBox="0 0 587.75 74.15"><g id="Layer_2" data-name="Layer 2"><g id="Layer_1-2" data-name="Layer 1"><path d="M259.27,30.55H232.75V73.37h-14V30.55H192.2V18.78h67.07Z"/><path d="M300.22,74.15c-24,0-34.32-9.13-34.32-28.16V18.78h14V46c0,7.65,2.11,16.38,20.28,16.38S320.49,53.56,320.49,46V18.78h14V46C334.53,64.94,324.16,74.15,300.22,74.15Z"/><path d="M412.29,18.78V73.37H393.18L356,32.42v41h-14V18.78h19l37.28,41v-41Z"/><path d="M434.13,29.93V41H477.8V51.14H434.13V62.21H477.8V73.37H420.09V18.78H477.8V29.93Z"/><path d="M568,73.37H554V35.93L531.31,73.37H521.17l-22.7-37.44V73.37h-14V18.78h18.95L526.24,57.3l22.85-38.52H568Z"/><path d="M174.31,17V74H126.67V28.83s-15.76.75-15.76,27.71V74.15H63.27V55c-1-25.46-15.75-26.21-15.75-26.21V74H0V17H47.52s10.67,0,15.75,13.8V0h47.64V30.9C115.87,17,126.67,17,126.67,17Z"/><path d="M587.75,24.89a6.08,6.08,0,1,1-12.16,0,6.08,6.08,0,1,1,12.16,0Zm-11,0a4.93,4.93,0,1,0,9.86,0,4.93,4.93,0,1,0-9.86,0Zm8.17-1h-1.65a1.46,1.46,0,0,0-1.51-1.43c-1.11,0-1.67.94-1.67,2.38s.66,2.41,1.68,2.41a1.48,1.48,0,0,0,1.48-1.41h1.65a3,3,0,0,1-3.25,2.6,3.24,3.24,0,0,1-3.28-3.57,3.29,3.29,0,0,1,3.42-3.59A3,3,0,0,1,584.91,23.92Z"/></g></g></svg>